<?xml version="1.0" encoding="UTF-8" standalone="no"?>
<!DOCTYPE svg PUBLIC "-//W3C//DTD SVG 1.1//EN" "http://www.w3.org/Graphics/SVG/1.1/DTD/svg11.dtd">
<svg version="1.1" xmlns:xl="http://www.w3.org/1999/xlink" xmlns:dc="http://purl.org/dc/elements/1.1/" xmlns="http://www.w3.org/2000/svg" viewBox="0 0 160 60" width="160" height="60">
  <defs/>
  <g id="Canvas_1" stroke-dasharray="none" stroke="none" fill="none" fill-opacity="1" stroke-opacity="1">
    <title>Canvas 1</title>
    <g id="Canvas_1_Layer_1">
      <title>Layer 1</title>
      <g id="Graphic_2">
        <path d="M 25.68 2.2 L 134.32 2.2 C 147.17056 2.2 157.6 14.6544 157.6 30 C 157.6 45.3456 147.17056 57.8 134.32 57.8 L 25.68 57.8 C 12.829439 57.8 2.3999988 45.3456 2.3999988 30 C 2.3999988 14.6544 12.829439 2.2 25.68 2.2 Z" fill="white"/>
        <path d="M 25.68 2.2 L 134.32 2.2 C 147.17056 2.2 157.6 14.6544 157.6 30 C 157.6 45.3456 147.17056 57.8 134.32 57.8 L 25.68 57.8 C 12.829439 57.8 2.3999988 45.3456 2.3999988 30 C 2.3999988 14.6544 12.829439 2.2 25.68 2.2 Z" stroke="black" stroke-linecap="round" stroke-linejoin="round" stroke-width="5"/>
      </g>
    </g>
  </g>
</svg>
