<?xml version="1.0" encoding="UTF-8" standalone="no"?>
<!DOCTYPE svg PUBLIC "-//W3C//DTD SVG 1.1//EN" "http://www.w3.org/Graphics/SVG/1.1/DTD/svg11.dtd">
<svg version="1.1" xmlns:xl="http://www.w3.org/1999/xlink" xmlns:dc="http://purl.org/dc/elements/1.1/" xmlns="http://www.w3.org/2000/svg" viewBox="0 0 120 60" width="120" height="60">
  <defs/>
  <g id="Canvas_1" stroke-dasharray="none" stroke="none" fill="none" fill-opacity="1" stroke-opacity="1">
    <title>Canvas 1</title>
    <g id="Canvas_1_Layer_1">
      <title>Layer 1</title>
      <g id="Graphic_2">
        <path d="M 5.189999 0 L 114.81 0 C 127.77648 0 138.3 13.44 138.3 30 C 138.3 46.56 127.77648 60 114.81 60 L 5.189999 60 C -7.776481 60 -18.300001 46.56 -18.300001 30 C -18.300001 13.44 -7.776481 0 5.189999 0 Z" fill="black"/>
        <path d="M 5.189999 0 L 114.81 0 C 127.77648 0 138.3 13.44 138.3 30 C 138.3 46.56 127.77648 60 114.81 60 L 5.189999 60 C -7.776481 60 -18.300001 46.56 -18.300001 30 C -18.300001 13.44 -7.776481 0 5.189999 0 Z" stroke="black" stroke-linecap="round" stroke-linejoin="round" stroke-width="1"/>
      </g>
    </g>
  </g>
</svg>
