<?xml version="1.0" encoding="UTF-8" standalone="no"?>
<!DOCTYPE svg PUBLIC "-//W3C//DTD SVG 1.1//EN" "http://www.w3.org/Graphics/SVG/1.1/DTD/svg11.dtd">
<svg version="1.1" xmlns:xl="http://www.w3.org/1999/xlink" xmlns:dc="http://purl.org/dc/elements/1.1/" xmlns="http://www.w3.org/2000/svg" viewBox="0 0 120 60" width="120" height="60">
  <defs/>
  <metadata> Produced by OmniGraffle 7.21.2\n2023-01-20 13:15:44 +0000</metadata>
  <g id="Canvas_1" stroke-dasharray="none" stroke="none" fill="none" fill-opacity="1" stroke-opacity="1">
    <title>Canvas 1</title>
    <g id="Canvas_1_Layer_1">
      <title>Layer 1</title>
      <g id="Graphic_2">
        <path d="M 21.9 9.2 L 98.9 9.2 C 108.008 9.2 115.4 18.5184 115.4 30 C 115.4 41.4816 108.008 50.8 98.9 50.8 L 21.9 50.8 C 12.792 50.8 5.4 41.4816 5.4 30 C 5.4 18.5184 12.792 9.2 21.9 9.2 Z" fill="black"/>
        <path d="M 21.9 9.2 L 98.9 9.2 C 108.008 9.2 115.4 18.5184 115.4 30 C 115.4 41.4816 108.008 50.8 98.9 50.8 L 21.9 50.8 C 12.792 50.8 5.4 41.4816 5.4 30 C 5.4 18.5184 12.792 9.2 21.9 9.2 Z" stroke="black" stroke-linecap="round" stroke-linejoin="round" stroke-width="1"/>
      </g>
    </g>
  </g>
</svg>
