<?xml version="1.0" encoding="UTF-8" standalone="no"?>
<!DOCTYPE svg PUBLIC "-//W3C//DTD SVG 1.1//EN" "http://www.w3.org/Graphics/SVG/1.1/DTD/svg11.dtd">
<svg version="1.1" xmlns:xl="http://www.w3.org/1999/xlink" xmlns:dc="http://purl.org/dc/elements/1.1/" xmlns="http://www.w3.org/2000/svg" viewBox="0 0 160 60" width="160" height="60">
  <defs/>
  <g id="Canvas_1" stroke-dasharray="none" stroke="none" fill="none" fill-opacity="1" stroke-opacity="1">
    <title>Canvas 1</title>
    <g id="Canvas_1_Layer_1">
      <title>Layer 1</title>
      <g id="Graphic_2">
        <path d="M 24 0 L 136 0 C 149.248 0 160 13.44 160 30 C 160 46.56 149.248 60 136 60 L 24 60 C 10.752 60 0 46.56 0 30 C 0 13.44 10.752 0 24 0 Z" fill="black"/>
        <path d="M 24 0 L 136 0 C 149.248 0 160 13.44 160 30 C 160 46.56 149.248 60 136 60 L 24 60 C 10.752 60 0 46.56 0 30 C 0 13.44 10.752 0 24 0 Z" stroke="black" stroke-linecap="round" stroke-linejoin="round" stroke-width="1"/>
      </g>
    </g>
  </g>
</svg>
